<svg  viewBox="0 0 710.8 743.8" xmlns="http://www.w3.org/2000/svg"><g fill="#ff731d"><path d="M631.2 743.8H79.6C35.7 743.8 0 708.1 0 664.2c0-1.5.1-3 .4-4.5l84.9-488c2.2-12.7 13.2-22 26.1-22h488c12.9 0 23.9 9.3 26.1 22l84.9 488c.3 1.5.4 3 .4 4.5 0 43.9-35.7 79.6-79.6 79.6zM53.1 666.1c1 13.7 12.5 24.6 26.5 24.6h551.7c14 0 25.5-10.9 26.5-24.6l-80.6-463.4H133.7z"></path><path d="M531.4 277.8h-53V176c0-67.8-55.1-122.9-122.9-122.9s-123 55.1-123 122.9v101.8h-53V176c0-97 78.9-176 176-176 97 0 176 78.9 176 176v101.8z"></path></g></svg>