<svg width="22" symbol="pizzaArrow" viewBox="0 0 32 30" xmlns="http://www.w3.org/2000/svg"><path d="M20.68 7.837a4.054 4.054 0 1 0 6.074 3.375l4.175 2.32a1.516 1.516 0 0 1 0 2.651L10.947 27.259l-1.435.81-2.49 1.383c-.895.51-2.03.268-2.639-.564a23.988 23.988 0 0 1-4.382-14.03A23.988 23.988 0 0 1 4.383.837a2.027 2.027 0 0 1 2.64-.575l2.505 1.362 1.43.81 9.723 5.402zm-6.085 6.758a4.054 4.054 0 1 0 0 8.108 4.054 4.054 0 0 0 0-8.108zM5.27 9.73a4.054 4.054 0 1 0 8.108 0 4.054 4.054 0 0 0-8.108 0z" fill="#FFF"></path></svg>